<svg version="1.0" xmlns="http://www.w3.org/2000/svg"
 width="327.000000pt" height="322.000000pt" viewBox="0 0 327.000000 322.000000"
 preserveAspectRatio="xMidYMid meet">

<g transform="translate(0.000000,322.000000) scale(0.100000,-0.100000)"
fill="#000000" stroke="none">
<path d="M0 1610 l0 -1610 1635 0 1635 0 0 1610 0 1610 -1635 0 -1635 0 0
-1610z m1323 1439 c27 -33 23 -93 -9 -118 -56 -44 -134 -8 -134 62 0 77 94
114 143 56z m1407 -407 c15 -12 22 -29 23 -56 2 -76 -83 -110 -137 -56 -26 25
-26 82 -1 110 23 26 84 27 115 2z m-1045 -181 c50 -22 109 -86 125 -136 7 -21
10 -58 7 -84 l-6 -47 119 -72 118 -73 37 26 c78 52 147 55 246 11 69 -31 95
-56 110 -106 11 -36 10 -49 -11 -112 -29 -89 -74 -142 -141 -165 l-49 -18 0
-107 0 -106 29 -7 c46 -10 108 -60 131 -105 32 -63 37 -156 12 -212 -23 -54
-50 -74 -124 -94 -87 -23 -155 -13 -205 30 l-27 23 -117 -70 -117 -70 -5 -55
c-8 -74 -48 -137 -109 -171 -25 -14 -49 -23 -52 -20 -3 3 -7 46 -8 95 l-3 89
45 0 45 0 3 63 c2 51 0 63 -14 69 -9 3 -24 2 -33 -4 -11 -8 -24 -7 -44 4 -23
12 -31 12 -54 0 -20 -11 -33 -12 -55 -3 -38 14 -44 4 -40 -74 4 -66 8 -68 62
-47 8 4 22 1 31 -6 14 -11 16 -27 11 -105 -5 -99 -4 -98 -65 -81 -83 23 -146
111 -147 204 l0 50 -117 64 c-95 52 -119 62 -132 52 -97 -71 -200 -67 -282 10
-51 47 -69 88 -69 154 0 92 60 177 144 205 l36 12 0 108 0 108 -29 7 c-47 10
-107 59 -130 107 -60 124 10 277 141 308 60 15 136 -1 178 -37 l29 -24 118 78
118 78 -3 46 c-2 26 4 63 14 87 21 54 95 120 143 128 20 3 41 7 46 9 23 8 52
3 90 -14z m-1456 -516 c49 -25 57 -90 16 -130 -51 -52 -140 -14 -138 59 2 70
60 104 122 71z m2832 -864 c16 -16 29 -39 29 -50 0 -86 -100 -120 -152 -51
-17 23 -17 30 -6 65 22 67 81 83 129 36z m-2316 -526 c52 -51 15 -137 -58
-137 -63 0 -97 47 -77 107 19 57 93 73 135 30z m1265 -265 c25 -13 41 -65 30
-94 -18 -48 -84 -71 -121 -43 -44 34 -47 103 -6 132 25 17 70 20 97 5z"/>
<path d="M1600 2391 l0 -39 -47 1 -48 0 -32 -87 c-25 -68 -30 -92 -22 -108 22
-41 86 -43 119 -3 14 17 8 46 -35 158 -6 15 1 17 78 17 l85 0 -29 -76 c-23
-59 -27 -80 -18 -95 22 -42 86 -44 119 -4 12 15 10 28 -15 101 -15 47 -33 88
-39 91 -5 4 -29 6 -53 4 l-43 -3 0 41 c0 23 -4 41 -10 41 -5 0 -10 -17 -10
-39z m-44 -198 c-2 -2 -24 -3 -48 -1 l-44 3 24 64 25 64 24 -63 c13 -35 21
-65 19 -67z m200 0 c-2 -2 -24 -3 -48 -1 l-44 3 24 64 25 64 24 -63 c13 -35
21 -65 19 -67z"/>
<path d="M1323 2046 l-110 -70 0 -66 c1 -94 -38 -161 -115 -201 l-38 -19 0
-115 c0 -107 1 -114 21 -120 12 -4 42 -25 65 -47 53 -49 77 -117 68 -188 l-6
-45 109 -61 109 -60 37 31 c40 35 95 55 148 55 42 0 115 -33 150 -66 l26 -25
108 65 108 65 1 74 c1 63 5 80 29 116 16 23 48 55 72 69 l44 27 1 118 c0 84
-3 117 -12 117 -29 0 -89 56 -114 106 -21 42 -25 64 -22 108 l3 56 -113 70
c-61 38 -114 70 -117 70 -2 0 -21 -11 -41 -25 -81 -55 -172 -55 -254 0 l-48
32 -109 -71z m55 -304 c61 -5 87 -101 37 -140 -21 -17 -23 -21 -10 -32 12 -10
45 -97 45 -117 0 -3 -14 -3 -32 -1 -29 3 -33 7 -44 52 -14 54 -27 67 -64 64
-23 -3 -25 -7 -28 -60 -3 -57 -4 -58 -32 -58 l-30 0 0 144 0 145 43 3 c41 3
68 3 115 0z m319 -6 c1 -1 0 -12 -4 -24 -5 -19 -12 -22 -58 -22 -68 0 -80 -14
-80 -95 0 -83 12 -95 86 -95 56 0 59 -1 59 -25 0 -22 -5 -25 -37 -27 -58 -3
-105 2 -126 13 -28 15 -47 71 -47 136 0 112 50 159 155 147 27 -3 51 -6 52 -8z
m185 -108 l57 -113 0 113 1 112 30 0 30 0 0 -129 c0 -71 -3 -136 -6 -145 -4
-10 -18 -16 -40 -16 -34 0 -35 2 -87 109 -29 61 -54 110 -57 110 -3 1 -4 -48
-2 -109 l3 -110 -30 0 -31 0 0 145 0 145 38 0 37 0 57 -112z"/>
<path d="M1280 1655 l0 -45 38 0 c43 0 62 14 62 45 0 31 -19 45 -62 45 l-38 0
0 -45z"/>
<path d="M2188 2099 c-10 -5 -18 -16 -18 -23 0 -8 -14 -19 -30 -26 -18 -7 -33
-22 -36 -37 -4 -13 -17 -29 -31 -34 -40 -15 -39 -37 3 -80 21 -21 42 -39 48
-39 5 0 25 17 44 38 l34 37 67 -73 c68 -74 80 -82 100 -58 11 13 -10 34 -132
137 -12 10 11 49 28 49 8 0 19 8 24 18 8 15 2 27 -32 60 -47 46 -45 45 -69 31z"/>
<path d="M978 2023 c-42 -30 -46 -37 -35 -54 6 -10 15 -19 20 -19 4 0 11 -10
16 -22 8 -21 1 -28 -65 -71 -41 -26 -74 -52 -74 -56 0 -5 6 -14 14 -20 10 -9
28 1 80 44 56 46 71 53 87 45 10 -6 19 -17 19 -24 0 -8 6 -19 14 -25 10 -8 22
-4 54 18 53 39 56 47 33 70 -10 10 -22 28 -26 40 -3 11 -19 30 -36 41 -16 12
-29 27 -29 34 0 8 -6 18 -13 24 -9 8 -25 1 -59 -25z"/>
<path d="M1000 1355 c0 -35 0 -35 -44 -35 l-43 0 -33 -85 c-34 -93 -33 -107
18 -126 25 -10 76 10 85 33 2 7 -8 46 -23 86 l-28 72 80 0 c60 0 79 -3 75 -12
-50 -134 -51 -137 -32 -158 26 -29 50 -33 85 -15 37 19 38 37 1 130 l-27 70
-47 3 c-46 3 -47 4 -47 38 0 18 -4 34 -10 34 -5 0 -10 -16 -10 -35z m129 -125
c12 -30 21 -58 21 -62 0 -5 -21 -8 -46 -8 -33 0 -45 4 -41 13 2 6 13 35 23 64
10 29 19 51 20 50 1 -1 12 -27 23 -57z m-185 -7 c9 -26 16 -50 16 -55 0 -4
-20 -8 -45 -8 l-44 0 21 59 c12 33 25 58 29 55 4 -2 14 -25 23 -51z"/>
<path d="M2190 1355 c0 -35 0 -35 -44 -35 l-43 0 -33 -85 c-27 -72 -30 -88
-19 -101 20 -24 56 -35 83 -24 44 16 46 38 16 118 l-28 72 80 0 c60 0 79 -3
75 -12 -46 -124 -49 -138 -36 -154 23 -28 57 -35 90 -19 36 19 36 38 0 130
l-27 70 -47 3 c-46 3 -47 4 -47 38 0 18 -4 34 -10 34 -5 0 -10 -16 -10 -35z
m129 -125 c12 -30 21 -58 21 -62 0 -5 -21 -8 -46 -8 -33 0 -45 4 -41 13 2 6
13 35 23 64 10 29 19 51 20 50 1 -1 12 -27 23 -57z m-185 -7 c9 -26 16 -50 16
-55 0 -4 -20 -8 -45 -8 l-44 0 21 59 c12 33 25 58 29 55 4 -2 14 -25 23 -51z"/>
</g>
</svg>
